<svg width="730" height="400" viewBox="0 0 730 400" fill="none" xmlns="http://www.w3.org/2000/svg">
<g clip-path="url(#clip0_621_1165)" filter="url(#filter0_d_621_1165)">
<path d="M367.317 392C563.093 392 721.801 381.509 721.801 368.569C721.801 355.628 563.093 345.137 367.317 345.137C171.541 345.137 12.8326 355.628 12.8326 368.569C12.8326 381.509 171.541 392 367.317 392Z" fill="#F2F2F2"/>
<path d="M353.73 112.058C295.975 112.058 254.507 149.055 254.507 235.381C254.507 333.216 295.975 359.114 353.73 359.114C411.485 359.114 455.423 330.75 455.423 235.381C455.423 133.434 411.485 112.058 353.73 112.058ZM354.11 326.639C314.107 326.639 293.208 303.207 293.208 235.444C293.208 175.653 314.963 144.122 354.965 144.122C394.968 144.122 416.722 164.833 416.722 235.444C416.722 301.499 394.112 326.639 354.11 326.639Z" fill="#2F2E41"/>
<path d="M219.924 290.876H196.044V220.666C196.044 216.937 194.561 213.36 191.92 210.724C189.279 208.087 185.697 206.605 181.962 206.605H176.366C174.517 206.605 172.686 206.969 170.977 207.676C169.269 208.382 167.716 209.418 166.409 210.724C165.101 212.029 164.064 213.579 163.356 215.285C162.648 216.991 162.284 218.819 162.284 220.666V290.876H94.9285C93.5429 290.876 92.1808 290.518 90.9743 289.838C89.7679 289.157 88.7581 288.177 88.0428 286.992C87.3276 285.807 86.9313 284.457 86.8923 283.074C86.8533 281.692 87.173 280.322 87.8203 279.099L159.109 144.382C159.997 142.702 160.536 140.86 160.692 138.967C160.848 137.074 160.618 135.169 160.017 133.367C159.415 131.564 158.454 129.903 157.191 128.482C155.929 127.061 154.391 125.91 152.67 125.099L148.462 123.115C145.194 121.574 141.459 121.346 138.028 122.479C134.597 123.612 131.733 126.018 130.029 129.2L43.084 291.596C41.6034 294.362 40.8289 297.449 40.8289 300.585C40.8289 303.088 41.3228 305.568 42.2824 307.881C43.2421 310.194 44.6487 312.296 46.4219 314.066C48.195 315.837 50.3001 317.241 52.6169 318.199C54.9337 319.158 57.4168 319.651 59.9245 319.651H162.284V364.047C162.284 366.26 162.721 368.452 163.569 370.497C164.417 372.541 165.661 374.399 167.228 375.964C168.796 377.529 170.656 378.771 172.704 379.618C174.752 380.465 176.947 380.901 179.164 380.901H179.164C181.381 380.901 183.576 380.465 185.624 379.618C187.672 378.771 189.533 377.529 191.1 375.964C192.668 374.399 193.911 372.541 194.759 370.497C195.608 368.452 196.044 366.26 196.044 364.047V319.651H219.924C223.745 319.651 227.411 318.135 230.113 315.437C232.815 312.739 234.334 309.079 234.334 305.263C234.334 301.447 232.815 297.788 230.113 295.09C227.411 292.391 223.745 290.876 219.924 290.876Z" fill="#7848F4"/>
<path d="M662.103 290.876H638.223V220.666C638.223 216.937 636.74 213.36 634.099 210.724C631.458 208.087 627.876 206.605 624.141 206.605H618.545C616.696 206.605 614.865 206.969 613.156 207.676C611.448 208.382 609.895 209.418 608.588 210.724C607.28 212.029 606.243 213.579 605.535 215.285C604.827 216.991 604.463 218.819 604.463 220.666V290.876H537.107C535.722 290.876 534.36 290.518 533.153 289.838C531.947 289.157 530.937 288.177 530.222 286.992C529.507 285.807 529.11 284.457 529.071 283.074C529.032 281.692 529.352 280.322 529.999 279.099L601.287 144.382C602.176 142.702 602.715 140.86 602.871 138.967C603.027 137.074 602.797 135.169 602.196 133.367C601.594 131.564 600.633 129.903 599.37 128.482C598.108 127.061 596.57 125.91 594.849 125.099L590.641 123.115C587.373 121.574 583.637 121.346 580.206 122.479C576.775 123.612 573.912 126.018 572.208 129.2L485.263 291.596C483.782 294.362 483.008 297.449 483.008 300.585C483.008 305.641 485.02 310.491 488.601 314.066C492.182 317.642 497.039 319.651 502.103 319.651H604.463V364.047C604.463 368.517 606.241 372.804 609.407 375.964C612.573 379.125 616.866 380.901 621.343 380.901C625.82 380.901 630.113 379.125 633.279 375.964C636.445 372.804 638.223 368.517 638.223 364.047V319.651H662.102C665.924 319.651 669.589 318.135 672.292 315.437C674.994 312.739 676.512 309.079 676.512 305.263C676.512 301.447 674.994 297.788 672.292 295.09C669.589 292.391 665.924 290.876 662.103 290.876Z" fill="#7848F4"/>
<path d="M226.511 282.654H202.632V212.444C202.632 210.598 202.268 208.77 201.56 207.064C200.852 205.358 199.815 203.808 198.507 202.502C197.2 201.196 195.647 200.161 193.939 199.454C192.23 198.747 190.399 198.384 188.549 198.384H182.954C179.219 198.384 175.637 199.865 172.996 202.502C170.355 205.139 168.871 208.715 168.871 212.444V282.654H101.516C100.13 282.654 98.7683 282.296 97.5619 281.616C96.3554 280.936 95.3456 279.955 94.6304 278.77C93.9151 277.585 93.5188 276.236 93.4798 274.853C93.4408 273.47 93.7605 272.101 94.4078 270.877L165.696 136.16C166.585 134.481 167.124 132.639 167.28 130.745C167.436 128.852 167.206 126.947 166.604 125.145C166.003 123.343 165.042 121.681 163.779 120.26C162.516 118.839 160.978 117.688 159.258 116.877L155.05 114.893C151.782 113.352 148.046 113.125 144.615 114.258C141.184 115.391 138.321 117.797 136.617 120.979L49.6715 283.375C48.191 286.14 47.4164 289.227 47.4164 292.363V292.363C47.4164 297.42 49.4282 302.269 53.0094 305.845C56.5905 309.421 61.4476 311.429 66.512 311.429H168.871V355.825C168.871 358.039 169.308 360.23 170.156 362.275C171.005 364.32 172.248 366.178 173.816 367.743C175.383 369.308 177.244 370.549 179.292 371.396C181.34 372.243 183.535 372.679 185.752 372.679H185.752C190.229 372.679 194.522 370.904 197.688 367.743C200.853 364.582 202.632 360.295 202.632 355.825V311.429H226.511C228.404 311.429 230.277 311.057 232.026 310.334C233.774 309.611 235.362 308.551 236.701 307.215C238.039 305.879 239.1 304.293 239.824 302.548C240.548 300.802 240.921 298.931 240.921 297.042V297.042C240.921 295.152 240.548 293.281 239.824 291.536C239.1 289.79 238.039 288.204 236.701 286.868C235.362 285.532 233.774 284.472 232.026 283.749C230.277 283.026 228.404 282.654 226.511 282.654V282.654Z" stroke="#3F3D56" stroke-miterlimit="10"/>
<path d="M674.454 282.654H650.575V212.444C650.575 208.715 649.091 205.139 646.45 202.502C643.809 199.865 640.227 198.384 636.493 198.384H630.897C629.048 198.384 627.217 198.747 625.508 199.454C623.799 200.161 622.247 201.196 620.939 202.502C619.632 203.808 618.594 205.358 617.887 207.064C617.179 208.77 616.815 210.598 616.815 212.444V282.654H549.459C548.074 282.654 546.711 282.296 545.505 281.616C544.299 280.936 543.289 279.955 542.573 278.77C541.858 277.585 541.462 276.236 541.423 274.853C541.384 273.47 541.704 272.101 542.351 270.877L613.639 136.16C614.528 134.481 615.067 132.639 615.223 130.745C615.379 128.852 615.149 126.947 614.547 125.145C613.946 123.343 612.985 121.681 611.722 120.26C610.459 118.839 608.921 117.688 607.201 116.877L602.993 114.893C599.725 113.352 595.989 113.125 592.558 114.258C589.127 115.391 586.264 117.797 584.56 120.979L497.615 283.375C496.134 286.14 495.359 289.227 495.359 292.363C495.359 297.42 497.371 302.269 500.952 305.845C504.534 309.421 509.391 311.429 514.455 311.429H616.815V355.825C616.815 360.295 618.593 364.582 621.759 367.743C624.924 370.904 629.218 372.679 633.695 372.679V372.679C638.172 372.679 642.465 370.904 645.631 367.743C648.797 364.582 650.575 360.295 650.575 355.825V311.429H674.454C676.347 311.429 678.22 311.057 679.969 310.334C681.717 309.611 683.306 308.551 684.644 307.215C685.982 305.879 687.043 304.293 687.767 302.548C688.492 300.802 688.864 298.931 688.864 297.042V297.042C688.864 293.226 687.346 289.566 684.644 286.868C681.941 284.17 678.276 282.654 674.454 282.654V282.654Z" stroke="#3F3D56" stroke-miterlimit="10"/>
<path d="M366.905 104.659C309.15 104.659 267.682 141.655 267.682 227.981C267.682 325.817 309.15 351.715 366.905 351.715C424.66 351.715 468.598 323.351 468.598 227.981C468.598 126.035 424.66 104.659 366.905 104.659ZM367.285 319.24C327.282 319.24 306.383 295.808 306.383 228.044C306.383 168.253 328.138 136.723 368.14 136.723C408.143 136.723 429.897 157.434 429.897 228.044C429.897 294.099 407.287 319.24 367.285 319.24V319.24Z" stroke="#3F3D56" stroke-miterlimit="10"/>
<path d="M320.61 20.9017C325.399 20.9017 329.28 17.0262 329.28 12.2454C329.28 7.46472 325.399 3.58917 320.61 3.58917C315.822 3.58917 311.941 7.46472 311.941 12.2454C311.941 17.0262 315.822 20.9017 320.61 20.9017Z" fill="#2F2E41"/>
<path d="M341.756 62.9163C355.186 62.9163 366.074 48.832 366.074 31.4581C366.074 14.0843 355.186 0 341.756 0C328.326 0 317.439 14.0843 317.439 31.4581C317.439 48.832 328.326 62.9163 341.756 62.9163Z" fill="#2F2E41"/>
<path opacity="0.1" d="M341.756 53.4155C329.574 53.4155 319.485 41.8276 317.715 26.7078C317.53 28.2845 317.438 29.8707 317.439 31.4582C317.439 48.832 328.326 62.9163 341.756 62.9163C355.186 62.9163 366.074 48.832 366.074 31.4582C366.074 29.8707 365.982 28.2845 365.798 26.7078C364.027 41.8276 353.938 53.4155 341.756 53.4155Z" fill="black"/>
<path d="M391.239 123.585C390.717 125.727 388.465 127.443 385.972 128.642C380.729 131.163 374.262 131.915 367.989 132.168C366.389 132.265 364.783 132.235 363.188 132.079C360.096 131.781 357.195 130.449 354.955 128.301C354.795 128.197 354.665 128.054 354.575 127.886C354.485 127.717 354.44 127.529 354.443 127.339C354.446 127.148 354.497 126.961 354.592 126.796C354.686 126.63 354.822 126.492 354.985 126.393C358.324 122.73 363.897 120.484 369.511 118.867C373.768 117.641 381.191 114.465 385.834 114.893C390.331 115.309 391.899 120.879 391.239 123.585Z" fill="#3F3D56"/>
<path opacity="0.1" d="M391.239 123.585C390.717 125.727 388.465 127.443 385.972 128.642C380.729 131.163 374.262 131.915 367.989 132.168C366.389 132.265 364.783 132.235 363.188 132.079C360.096 131.781 357.195 130.449 354.955 128.301C354.795 128.197 354.665 128.054 354.575 127.886C354.485 127.717 354.44 127.529 354.443 127.339C354.446 127.148 354.497 126.961 354.592 126.796C354.686 126.63 354.822 126.492 354.985 126.393C358.324 122.73 363.897 120.484 369.511 118.867C373.768 117.641 381.191 114.465 385.834 114.893C390.331 115.309 391.899 120.879 391.239 123.585Z" fill="black"/>
<path d="M324.577 107.57C322.977 110.702 322.687 114.34 323.772 117.685C324.875 121.005 326.94 123.923 329.705 126.07C336.489 131.499 345.825 132.246 354.519 132.171C362.138 132.105 369.746 131.584 377.303 130.612C379.836 130.388 382.324 129.811 384.696 128.898C387.534 127.672 390.027 125.424 391.037 122.506C392.048 119.589 391.331 116.017 388.931 114.07C386.823 112.359 383.917 112.123 381.205 111.961L365.69 111.03C367.223 109.481 369.264 108.605 371.13 107.479C373.607 105.985 375.252 103.477 377.053 101.216C379.827 97.9049 382.846 94.806 386.084 91.9449C386.589 94.837 388.421 97.2119 390.578 99.2075C392.734 101.203 395.22 102.81 397.462 104.709C402.89 109.311 406.8 115.557 412.509 119.807C416.437 118.776 420.109 116.946 423.294 114.431L421.075 110.417C420.89 110.004 420.602 109.646 420.239 109.375C419.611 108.99 418.801 109.188 418.071 109.079C416.122 108.787 415.271 106.54 414.506 104.726C412.406 99.7466 408.385 95.8831 404.951 91.7071C402.417 88.6244 400.168 85.3179 398.234 81.8285C397.081 79.7474 396.024 77.5806 394.459 75.7877C392.894 73.9947 390.7 72.5851 388.318 72.5801C386.213 72.5757 384.272 73.6426 382.462 74.7158C376.95 77.9848 371.646 81.5924 366.582 85.5177C363.932 87.572 361.298 89.7424 358.189 91.0021C356.881 91.5324 355.501 91.8949 354.245 92.5402C352.046 93.6703 350.376 95.5826 348.579 97.28C342.17 103.334 333.395 107.257 324.577 107.57Z" fill="#3F3D56"/>
<path d="M357.019 64.4787C356.947 66.3293 356.553 68.1532 355.854 69.8688C355.5 70.7244 354.973 71.498 354.306 72.1413C353.639 72.7846 352.846 73.2839 351.978 73.6079C350.744 73.9378 349.451 73.9797 348.199 73.7303C347.107 73.6164 346.055 73.2585 345.12 72.6831C343.665 71.6845 342.94 69.9026 342.676 68.1586C342.412 66.4168 342.53 64.637 342.361 62.8825C342.196 61.4654 341.926 60.0625 341.553 58.6853C341.439 58.2272 341.323 57.7711 341.208 57.3151C341.096 56.8591 340.986 56.403 340.885 55.947C340.792 55.5184 340.705 55.0877 340.631 54.6549C340.57 54.2896 340.515 53.9222 340.475 53.5528C340.438 52.4574 340.255 51.3719 339.931 50.3246C339.627 49.6454 339.247 49.003 338.798 48.4097C338.605 48.1352 338.419 47.8608 338.248 47.5757C337.753 46.835 337.522 45.9489 337.595 45.0612C337.615 44.9239 337.648 44.7889 337.694 44.6579C337.711 44.6073 337.73 44.5566 337.751 44.508C337.941 44.4565 338.116 44.3593 338.26 44.225C338.404 44.0907 338.513 43.9233 338.578 43.7374C338.651 43.338 338.616 42.9264 338.479 42.5445C338.32 42.0108 338.104 41.4961 337.834 41.0096C337.656 40.6887 337.053 40.1102 337.049 39.7428C337.041 39.0039 338.487 38.4085 339.073 38.1171C340.861 37.2232 342.854 36.8196 344.85 36.9475C346.129 37.034 347.516 37.4267 348.222 38.4971C348.857 39.462 348.772 40.7119 349.043 41.833C349.071 41.9959 349.14 42.1491 349.244 42.2785C349.382 42.404 349.555 42.4837 349.741 42.5065C350.054 42.5687 350.375 42.5815 350.692 42.5445H350.694C350.778 42.5379 350.862 42.5259 350.944 42.5086C351.438 42.4176 351.905 42.2162 352.31 41.9195C352.572 41.8499 352.836 41.7929 353.103 41.7485C353.114 41.7474 353.124 41.7453 353.135 41.7422C354.194 45.0801 354.331 48.6588 355.198 52.0579C355.628 53.7491 356.243 55.4191 356.33 57.1588C356.336 57.2348 356.338 57.3129 356.34 57.391C356.353 57.9505 356.309 58.5142 356.332 59.0716C356.34 59.3226 356.368 59.5725 356.416 59.819C356.511 60.2154 356.629 60.606 356.769 60.9887L356.776 61.0077C356.816 61.1301 356.854 61.2547 356.886 61.3793C356.909 61.47 356.93 61.5587 356.947 61.6495L356.949 61.6558C357.106 62.5888 357.129 63.5392 357.019 64.4787Z" fill="#FBBEBE"/>
<path d="M342.179 42.648C349.069 42.648 354.655 37.071 354.655 30.1914C354.655 23.3118 349.069 17.7348 342.179 17.7348C335.289 17.7348 329.703 23.3118 329.703 30.1914C329.703 37.071 335.289 42.648 342.179 42.648Z" fill="#FBBEBE"/>
<path d="M421.386 98.0607C421.024 94.6622 419.815 91.4087 417.867 88.5979C418.191 90.5192 418.515 92.4398 418.84 94.3596C418.436 94.4763 418.007 94.4728 417.605 94.3494C417.203 94.226 416.846 93.9881 416.578 93.665C416.052 93.0101 415.65 92.2654 415.391 91.4672C413.974 87.954 412.12 84.6323 409.874 81.58C401.932 80.9192 394.081 77.6319 387.096 73.7999C380.11 69.9701 373.572 65.378 366.678 61.3856C365.483 60.6643 364.238 60.0293 362.952 59.4854C360.796 58.6219 358.374 58.1743 356.33 57.1588C356.192 57.0912 356.055 57.0194 355.919 56.9455C355.457 56.6947 355.02 56.4014 354.613 56.0694C354.392 55.8909 354.183 55.6991 353.987 55.4951C352.966 54.31 352.158 52.9589 351.595 51.5005C350.498 49.0768 350.106 46.1526 349.011 43.7289C349.515 43.2591 350.08 42.8606 350.692 42.5445H350.694C350.783 42.498 350.872 42.4537 350.963 42.4115C351.396 42.2077 351.847 42.043 352.31 41.9195C352.572 41.8499 352.836 41.7928 353.103 41.7485C353.114 41.7474 353.124 41.7453 353.135 41.7422C354.37 41.5412 355.636 41.6411 356.824 42.0335C358.563 42.6205 360.028 43.7922 361.489 44.9007C363.863 46.5704 366.14 48.3735 368.309 50.3013C369.514 51.454 370.613 52.7208 371.91 53.7681C372.987 54.5981 374.122 55.3495 375.308 56.0166C382.322 60.1885 389.336 64.3596 396.352 68.5301C398.726 69.9426 401.103 71.3551 403.425 72.8498C406.952 75.1216 410.352 77.5833 413.75 80.043C415.753 81.4913 417.755 82.9404 419.756 84.3901C420.412 84.8083 420.989 85.3403 421.458 85.9609C421.873 86.6656 422.13 87.4513 422.213 88.2643C422.715 91.5492 422.432 94.9061 421.386 98.0607Z" fill="#FBBEBE"/>
<path d="M360.113 73.8464C359.271 77.615 355.457 79.8931 353.463 83.2036C350.984 87.3122 351.995 92.0879 352.925 96.7939C351.225 98.2571 349.524 99.7202 347.823 101.183C346.884 101.988 345.945 102.796 344.935 103.508C343.461 104.494 341.92 105.377 340.325 106.151C338.819 106.924 337.314 107.697 335.808 108.471C334.408 109.257 332.925 109.885 331.387 110.342C328.42 111.102 325.269 110.57 322.334 109.69C321.988 109.599 321.655 109.463 321.344 109.286C321.161 109.177 321.002 109.033 320.875 108.862C320.586 108.344 320.481 107.744 320.577 107.158C320.875 102.226 322.082 97.3978 323.286 92.6051C323.929 89.7299 324.793 86.9086 325.872 84.1663C326.929 81.8166 328.145 79.5411 329.511 77.3553C331.018 74.6052 332.804 72.0166 334.84 69.6301C335.831 68.7116 336.665 67.6376 337.309 66.4505C338.06 64.7404 337.77 62.779 337.923 60.9169C338.039 59.5178 338.411 58.1518 339.02 56.8864V56.8843C339.346 56.2027 339.738 55.5549 340.192 54.9504C340.397 55.4275 340.602 55.904 340.807 56.3797C340.942 56.6922 341.076 57.004 341.209 57.3151C341.382 57.7162 341.554 58.1159 341.725 58.5143C342.217 59.6586 342.709 60.8022 343.201 61.9451C343.732 63.3846 344.488 64.7308 345.442 65.9333C345.878 66.5491 346.467 67.0414 347.15 67.3622C347.834 67.6831 348.589 67.8214 349.342 67.7637C350.095 67.7061 350.82 67.4544 351.447 67.0333C352.073 66.6122 352.58 66.0361 352.917 65.3612C353.628 64.1013 354.143 62.7409 354.444 61.3265C354.861 59.6044 354.919 57.8148 354.613 56.0694C354.103 52.7082 352.672 49.2753 351.631 46.1527C351.208 45.1115 350.963 44.0067 350.906 42.8844C350.908 42.7583 350.921 42.6326 350.944 42.5086C350.95 42.4769 350.957 42.4431 350.963 42.4115C351.397 42.2077 351.847 42.0431 352.31 41.9196C352.572 41.8499 352.837 41.7929 353.103 41.7485C354.019 46.6974 354.936 51.6462 355.854 56.5951C355.875 56.7112 355.898 56.8273 355.92 56.9456C356.051 57.655 356.184 58.3644 356.332 59.0716C356.465 59.7135 356.609 60.3532 356.77 60.9887L356.776 61.0077C356.831 61.2231 356.888 61.4363 356.947 61.6495L356.949 61.6558C357.112 62.2386 357.294 62.817 357.499 63.3871C358.743 66.8221 360.91 70.2804 360.113 73.8464Z" fill="#6C63FF"/>
<path d="M410.745 126.808C410.705 127.534 410.846 128.258 411.155 128.917C411.935 130.342 413.809 130.666 415.43 130.799C424.9 131.576 434.428 131.286 443.833 129.935C444.343 129.9 444.838 129.747 445.279 129.487C446.616 128.551 445.792 126.269 444.331 125.539C442.871 124.809 441.139 124.985 439.536 124.669C437.945 124.269 436.429 123.612 435.049 122.725C431.8 120.862 428.598 118.918 425.444 116.896C423.566 115.692 421.349 114.407 419.235 115.121C413.506 117.056 410.707 120.637 410.745 126.808Z" fill="#3F3D56"/>
<path d="M340.933 55.6831V55.6852C340.919 55.7738 340.904 55.8604 340.885 55.947C340.861 56.0906 340.834 56.2362 340.806 56.3797C340.544 57.7204 340.223 59.0547 339.853 60.3806C338.838 64.0437 337.478 67.6477 336.129 71.1989C332.509 80.7207 328.888 90.2433 325.267 99.7666C324.353 102.165 323.442 104.566 322.403 106.915C322.057 107.699 321.699 108.488 321.344 109.286C320.071 112.143 318.849 115.092 318.443 118.133C318.064 120.134 318.021 122.183 318.314 124.198C318.72 126.191 319.932 128.138 321.828 128.875C322.754 129.236 324.08 129.719 323.827 130.68C323.689 131.208 323.089 131.465 322.549 131.554C321.837 131.667 321.109 131.623 320.416 131.424C319.723 131.224 319.083 130.875 318.54 130.401C317.527 129.504 316.749 128.109 315.402 127.959C314.47 127.857 313.611 128.415 312.757 128.805C309.272 130.395 305.212 129.282 301.552 128.153C301.839 126.673 303.328 125.697 304.806 125.402C306.284 125.104 307.813 125.315 309.321 125.275C309.803 125.301 310.283 125.178 310.693 124.923C311.061 124.585 311.319 124.146 311.433 123.66C312.404 120.787 313.127 117.836 313.592 114.839C314.078 111.708 314.281 108.528 314.975 105.435C315.514 103.022 316.347 100.685 317.062 98.3162C318.444 93.4388 319.579 88.495 320.462 83.5034C320.909 81.4297 321.229 79.3307 321.42 77.2181C321.541 75.4658 321.484 73.705 321.653 71.9589C321.937 69.6873 322.411 67.4436 323.072 65.2514C323.719 62.8593 324.365 60.4686 325.011 58.0793C325.969 54.5429 326.996 50.8693 329.424 48.1204C330.267 47.1527 331.3 46.3681 332.459 45.8154C333.618 45.2626 334.879 44.9535 336.163 44.907C336.644 44.9065 337.124 44.9581 337.594 45.0612C337.673 45.0802 337.751 45.0992 337.829 45.1203C338.341 45.254 338.833 45.4572 339.29 45.7241C340.039 45.2491 340.419 45.4159 340.916 46.1485C341.352 46.9238 341.557 47.807 341.508 48.6947C341.55 51.0375 341.358 53.3785 340.933 55.6831Z" fill="#FBBEBE"/>
<path d="M341.756 58.4826L341.724 58.5143L341.553 58.6853L339.853 60.3807L339.02 56.8865L336.163 44.907C336.645 44.9064 337.125 44.9581 337.595 45.0611C337.615 44.9239 337.648 44.7889 337.694 44.6579L337.829 45.1203L338.798 48.4096L340.631 54.6548L340.934 55.683V55.6851L341.756 58.4826Z" fill="#6C63FF"/>
<path d="M352.544 20.2651C352.543 21.3743 352.323 22.4724 351.896 23.4966C351.469 24.5207 350.845 25.4509 350.058 26.2339C349.773 26.5189 349.467 26.7827 349.144 27.0232C347.684 28.1215 345.907 28.716 344.08 28.7168H333.935C331.693 28.7133 329.545 27.8218 327.961 26.238C326.377 24.6541 325.487 22.5074 325.487 20.2692C325.487 18.031 326.377 15.8843 327.961 14.3004C329.545 12.7166 331.693 11.825 333.935 11.8216H344.08C346.321 11.8274 348.47 12.7186 350.056 14.3006C351.642 15.8825 352.536 18.0268 352.544 20.2651Z" fill="#2F2E41"/>
<path d="M362.056 20.9017C366.844 20.9017 370.726 17.0262 370.726 12.2454C370.726 7.46472 366.844 3.58917 362.056 3.58917C357.268 3.58917 353.386 7.46472 353.386 12.2454C353.386 17.0262 357.268 20.9017 362.056 20.9017Z" fill="#2F2E41"/>
<path opacity="0.1" d="M361.845 3.58917C361.738 3.58917 361.633 3.59339 361.527 3.59718C363.77 3.67859 365.894 4.62538 367.452 6.23834C369.009 7.85131 369.88 10.0047 369.88 12.2454C369.88 14.4862 369.009 16.6396 367.452 18.2525C365.894 19.8655 363.77 20.8123 361.527 20.8937C361.633 20.8975 361.738 20.9017 361.845 20.9017C364.144 20.9017 366.349 19.9897 367.975 18.3663C369.601 16.743 370.514 14.5412 370.514 12.2454C370.514 9.94966 369.601 7.7479 367.975 6.12454C366.349 4.50117 364.144 3.58917 361.845 3.58917Z" fill="black"/>
<path opacity="0.1" d="M320.611 3.58917C320.717 3.58917 320.822 3.59339 320.928 3.59718C318.685 3.67859 316.561 4.62538 315.004 6.23834C313.446 7.85131 312.575 10.0047 312.575 12.2454C312.575 14.4862 313.446 16.6396 315.004 18.2525C316.561 19.8655 318.685 20.8123 320.928 20.8937C320.822 20.8975 320.717 20.9017 320.611 20.9017C318.313 20.8997 316.109 19.9868 314.485 18.3637C312.861 16.7405 311.949 14.5399 311.949 12.2454C311.949 9.95098 312.861 7.75038 314.485 6.12723C316.109 4.50408 318.313 3.59119 320.611 3.58917Z" fill="black"/>
<path opacity="0.1" d="M349.144 27.0232C347.684 28.1215 345.907 28.716 344.08 28.7168H333.935C332.108 28.716 330.33 28.1215 328.871 27.0232H349.144Z" fill="black"/>
<path d="M414.654 89.7459C414.654 89.7459 416.84 96.0339 418.84 94.3597L417.246 86.1404L414.654 89.7459Z" fill="#FBBEBE"/>
<path d="M680.621 281.504C682.656 282.243 684.836 282.5 686.988 282.254C689.14 282.008 691.206 281.267 693.022 280.088C694.838 278.91 696.355 277.326 697.453 275.462C698.552 273.598 699.202 271.505 699.352 269.347C699.502 267.19 699.148 265.027 698.318 263.029C697.488 261.032 696.205 259.254 694.569 257.836C692.934 256.418 690.991 255.399 688.893 254.858C686.796 254.318 684.602 254.271 682.483 254.722L682.833 261.91L679.427 255.75C676.085 257.318 673.502 260.147 672.248 263.616C671.802 264.83 671.531 266.102 671.443 267.393C671.228 270.422 672.008 273.437 673.664 275.984C675.32 278.53 677.762 280.468 680.621 281.504Z" fill="#57B894"/>
<path d="M697.473 364.867C696.271 358.755 701.48 353.336 706.626 349.813C711.772 346.291 717.785 342.83 719.541 336.852C722.064 328.261 714.548 320.394 708.698 313.609C704.357 308.574 700.63 303.043 697.594 297.132C696.376 294.761 695.258 292.284 694.938 289.639C694.476 285.831 695.702 282.042 696.936 278.41C701.048 266.309 705.445 254.31 710.127 242.412" stroke="#3F3D56" stroke-miterlimit="10"/>
<path d="M681.197 279.654C683.232 280.393 685.412 280.649 687.564 280.404C689.716 280.158 691.782 279.416 693.598 278.238C695.414 277.059 696.931 275.475 698.029 273.611C699.128 271.748 699.778 269.654 699.928 267.497C700.078 265.339 699.724 263.176 698.894 261.179C698.064 259.181 696.781 257.403 695.145 255.985C693.51 254.567 691.567 253.548 689.469 253.008C687.372 252.467 685.178 252.421 683.059 252.872L683.409 260.059L680.003 253.9C676.661 255.468 674.079 258.297 672.824 261.765C672.378 262.98 672.108 264.252 672.02 265.543C671.805 268.571 672.584 271.587 674.24 274.133C675.896 276.68 678.338 278.618 681.197 279.654V279.654Z" stroke="#3F3D56" stroke-miterlimit="10"/>
<path d="M695.763 239.93C696.562 237.729 697.903 235.764 699.662 234.217C701.422 232.669 703.543 231.589 705.83 231.075L706.982 237.908L709.117 230.731C712.081 230.775 714.955 231.759 717.323 233.539C719.691 235.32 721.431 237.806 722.291 240.639C723.152 243.472 723.089 246.504 722.111 249.298C721.133 252.093 719.291 254.505 716.851 256.186C714.411 257.867 711.499 258.73 708.535 258.651C705.571 258.571 702.71 257.554 700.363 255.745C698.016 253.936 696.306 251.429 695.48 248.587C694.653 245.744 694.752 242.713 695.763 239.93H695.763Z" fill="#57B894"/>
<path d="M696.531 237.463C697.33 235.262 698.671 233.297 700.43 231.75C702.189 230.202 704.31 229.121 706.598 228.608L707.749 235.44L709.884 228.264C712.849 228.308 715.722 229.291 718.09 231.072C720.458 232.853 722.198 235.339 723.059 238.172C723.92 241.004 723.857 244.037 722.879 246.831C721.901 249.625 720.059 252.037 717.619 253.718C715.178 255.399 712.266 256.262 709.303 256.183C706.339 256.104 703.477 255.086 701.131 253.278C698.784 251.469 697.074 248.962 696.247 246.119C695.42 243.277 695.52 240.245 696.531 237.463H696.531Z" stroke="#3F3D56" stroke-miterlimit="10"/>
<path d="M706.242 313.747C709.471 314.917 713.017 314.859 716.206 313.585C719.394 312.311 722.002 309.911 723.531 306.841C725.061 303.771 725.406 300.246 724.5 296.939C723.594 293.631 721.501 290.772 718.62 288.906L716.979 294.421L715.816 287.508C715.805 287.502 715.793 287.498 715.781 287.494C714.054 286.868 712.22 286.587 710.385 286.668C708.549 286.749 706.748 287.191 705.083 287.967C703.419 288.744 701.924 289.84 700.684 291.194C699.444 292.547 698.483 294.132 697.857 295.856C697.23 297.581 696.95 299.411 697.032 301.244C697.115 303.077 697.558 304.875 698.337 306.536C699.115 308.198 700.214 309.69 701.571 310.927C702.927 312.165 704.515 313.123 706.242 313.747H706.242Z" fill="#57B894"/>
<path d="M706.908 311.248C710.136 312.417 713.682 312.36 716.871 311.086C720.06 309.812 722.667 307.412 724.197 304.342C725.726 301.272 726.071 297.747 725.165 294.439C724.26 291.132 722.167 288.273 719.285 286.407L717.645 291.922L716.482 285.008C716.47 285.003 716.458 284.999 716.446 284.995C714.719 284.368 712.886 284.088 711.05 284.169C709.215 284.25 707.413 284.691 705.749 285.468C704.084 286.245 702.589 287.341 701.349 288.695C700.109 290.048 699.149 291.632 698.522 293.357C697.895 295.081 697.615 296.912 697.698 298.745C697.78 300.577 698.223 302.376 699.002 304.037C699.781 305.699 700.88 307.191 702.236 308.428C703.593 309.665 705.18 310.624 706.908 311.248H706.908Z" stroke="#3F3D56" stroke-miterlimit="10"/>
<path d="M691.682 336.938C692.237 340.091 693.861 342.959 696.282 345.058C698.703 347.158 701.774 348.363 704.979 348.471C708.184 348.579 711.329 347.583 713.886 345.65C716.443 343.718 718.257 340.966 719.023 337.857C719.789 334.748 719.462 331.47 718.095 328.573C716.728 325.677 714.405 323.337 711.516 321.948C708.627 320.558 705.347 320.203 702.226 320.941C699.106 321.679 696.334 323.466 694.377 326.003L700.608 335.367L692.094 330.397C691.434 332.513 691.292 334.756 691.682 336.938Z" fill="#57B894"/>
<path d="M692.258 335.087C692.813 338.241 694.437 341.108 696.858 343.208C699.279 345.308 702.35 346.513 705.555 346.621C708.76 346.728 711.905 345.732 714.462 343.8C717.019 341.867 718.833 339.116 719.599 336.007C720.365 332.897 720.038 329.62 718.671 326.723C717.304 323.826 714.981 321.487 712.092 320.097C709.203 318.708 705.923 318.352 702.802 319.09C699.682 319.829 696.91 321.616 694.953 324.152L701.184 333.517L692.67 328.546C692.01 330.662 691.869 332.905 692.258 335.087V335.087Z" stroke="#3F3D56" stroke-miterlimit="10"/>
<path d="M10.0533 315.522C11.3908 316.007 12.823 316.176 14.2369 316.014C15.6508 315.853 17.0079 315.366 18.2011 314.591C19.3943 313.817 20.391 312.777 21.1128 311.552C21.8345 310.327 22.2615 308.952 22.3601 307.534C22.4587 306.117 22.2261 304.696 21.6808 303.383C21.1356 302.071 20.2924 300.903 19.2178 299.971C18.1433 299.04 16.8667 298.37 15.4887 298.015C14.1107 297.66 12.6689 297.629 11.277 297.926L11.5071 302.648L9.26936 298.601C7.07318 299.631 5.37655 301.49 4.55229 303.769C4.25956 304.567 4.08161 305.402 4.02373 306.25C3.88248 308.24 4.39469 310.222 5.48274 311.895C6.57078 313.568 8.17536 314.841 10.0533 315.522Z" fill="#57B894"/>
<path d="M21.1253 370.293C20.3354 366.277 23.7582 362.716 27.1392 360.402C30.5201 358.088 34.4706 355.814 35.6242 351.886C37.2821 346.242 32.3437 341.073 28.5 336.615C25.6483 333.307 23.1994 329.673 21.2045 325.789C20.3372 324.264 19.7464 322.597 19.4595 320.867C19.1564 318.365 19.9615 315.875 20.7725 313.488C23.4744 305.538 26.3632 297.655 29.4389 289.838" stroke="#3F3D56" stroke-miterlimit="10"/>
<path d="M10.4315 314.306C11.769 314.791 13.2011 314.96 14.6151 314.799C16.029 314.637 17.386 314.15 18.5792 313.376C19.7724 312.601 20.7692 311.561 21.4909 310.336C22.2127 309.111 22.6396 307.736 22.7382 306.319C22.8368 304.901 22.6043 303.48 22.059 302.168C21.5137 300.855 20.6706 299.687 19.596 298.755C18.5215 297.824 17.2449 297.154 15.8668 296.799C14.4888 296.444 13.0471 296.413 11.6552 296.71L11.8852 301.432L9.64753 297.385C7.45136 298.415 5.75472 300.274 4.93046 302.553C4.63774 303.351 4.45979 304.186 4.40191 305.035C4.26065 307.024 4.77286 309.006 5.86091 310.679C6.94895 312.352 8.55353 313.625 10.4315 314.306V314.306Z" stroke="#3F3D56" stroke-miterlimit="10"/>
<path d="M20.002 288.207C20.5269 286.761 21.4078 285.47 22.5637 284.453C23.7195 283.436 25.1131 282.726 26.616 282.389L27.3726 286.878L28.7753 282.163C30.7229 282.192 32.6109 282.838 34.1668 284.008C35.7227 285.178 36.8659 286.811 37.4314 288.672C37.9968 290.534 37.9553 292.526 37.3128 294.362C36.6703 296.198 35.4601 297.782 33.8569 298.887C32.2536 299.991 30.3403 300.558 28.3932 300.506C26.4461 300.454 24.5659 299.786 23.0241 298.597C21.4823 297.409 20.3587 295.762 19.8155 293.894C19.2723 292.027 19.3376 290.035 20.002 288.207Z" fill="#57B894"/>
<path d="M20.5068 286.586C21.0317 285.14 21.9126 283.849 23.0685 282.832C24.2243 281.815 25.6179 281.105 27.1207 280.768L27.8773 285.257L29.28 280.542C31.2277 280.571 33.1157 281.217 34.6716 282.387C36.2274 283.557 37.3706 285.19 37.9361 287.051C38.5016 288.912 38.4601 290.905 37.8176 292.741C37.1751 294.577 35.9649 296.161 34.3616 297.266C32.7584 298.37 30.845 298.937 28.8979 298.885C26.9508 298.833 25.0706 298.165 23.5289 296.976C21.9871 295.788 20.8635 294.141 20.3203 292.273C19.7771 290.405 19.8424 288.414 20.5068 286.586V286.586Z" stroke="#3F3D56" stroke-miterlimit="10"/>
<path d="M26.887 336.706C29.0082 337.474 31.3382 337.436 33.4332 336.599C35.5281 335.763 37.2413 334.185 38.2464 332.168C39.2514 330.151 39.478 327.835 38.8829 325.662C38.2877 323.489 36.9126 321.611 35.0194 320.385L33.9416 324.008L33.1773 319.466C33.1697 319.462 33.1619 319.459 33.1539 319.457C32.0193 319.045 30.8146 318.861 29.6085 318.914C28.4024 318.967 27.2186 319.257 26.1248 319.767C25.031 320.277 24.0486 320.998 23.2338 321.887C22.419 322.776 21.7877 323.817 21.376 324.951C20.9643 326.084 20.7803 327.287 20.8345 328.491C20.8886 329.695 21.18 330.877 21.6918 331.968C22.2036 333.06 22.9258 334.04 23.8172 334.853C24.7087 335.666 25.7518 336.296 26.887 336.706Z" fill="#57B894"/>
<path d="M27.3241 335.064C29.4452 335.832 31.7753 335.794 33.8702 334.957C35.9652 334.121 37.6784 332.543 38.6835 330.526C39.6885 328.509 39.9151 326.193 39.32 324.02C38.7248 321.847 37.3496 319.969 35.4565 318.743L34.3787 322.366L33.6144 317.824C33.6068 317.82 33.599 317.817 33.591 317.815C32.4567 317.404 31.2524 317.221 30.0469 317.274C28.8415 317.328 27.6584 317.619 26.5654 318.129C24.3579 319.16 22.6508 321.024 21.8198 323.311C20.9887 325.598 21.1018 328.122 22.134 330.326C23.1663 332.53 25.0332 334.234 27.3241 335.064V335.064Z" stroke="#3F3D56" stroke-miterlimit="10"/>
<path d="M17.3205 351.942C17.6853 354.014 18.7524 355.898 20.3431 357.278C21.9338 358.658 23.9512 359.449 26.057 359.52C28.1629 359.591 30.2291 358.936 31.9091 357.667C33.5891 356.397 34.7808 354.589 35.2843 352.546C35.7878 350.504 35.5725 348.35 34.6744 346.447C33.7764 344.544 32.2503 343.007 30.352 342.094C28.4538 341.181 26.2988 340.947 24.2485 341.432C22.1983 341.917 20.3774 343.092 19.0913 344.758L23.1854 350.911L17.5913 347.645C17.1576 349.035 17.0647 350.509 17.3205 351.942Z" fill="#57B894"/>
<path d="M17.6988 350.727C18.0635 352.799 19.1307 354.682 20.7213 356.062C22.312 357.442 24.3294 358.233 26.4353 358.304C28.5411 358.375 30.6073 357.721 32.2873 356.451C33.9674 355.181 35.159 353.373 35.6625 351.331C36.166 349.288 35.9507 347.134 35.0527 345.231C34.1546 343.328 32.6285 341.791 30.7303 340.878C28.832 339.965 26.677 339.731 24.6268 340.216C22.5765 340.702 20.7556 341.876 19.4695 343.542L23.5636 349.695L17.9695 346.429C17.5358 347.819 17.4429 349.293 17.6988 350.727V350.727Z" stroke="#3F3D56" stroke-miterlimit="10"/>
<path d="M327.2 228.877C333.509 228.877 338.624 222.269 338.624 214.116C338.624 205.964 333.509 199.355 327.2 199.355C320.89 199.355 315.776 205.964 315.776 214.116C315.776 222.269 320.89 228.877 327.2 228.877Z" fill="#2F2E41"/>
<path d="M389.361 229.213C395.67 229.213 400.785 222.604 400.785 214.452C400.785 206.299 395.67 199.69 389.361 199.69C383.051 199.69 377.936 206.299 377.936 214.452C377.936 222.604 383.051 229.213 389.361 229.213Z" fill="#2F2E41"/>
<path d="M380.624 258.065C380.624 264.734 371.297 270.142 359.792 270.142C348.287 270.142 338.96 264.734 338.96 258.065C338.96 252.288 345.955 247.457 355.303 246.276C356.791 246.08 358.291 245.983 359.792 245.987C362.307 245.979 364.816 246.249 367.271 246.792C375.08 248.53 380.624 252.925 380.624 258.065Z" fill="#2F2E41"/>
<path d="M329.888 225.523C336.197 225.523 341.312 218.914 341.312 210.761C341.312 202.609 336.197 196 329.888 196C323.578 196 318.464 202.609 318.464 210.761C318.464 218.914 323.578 225.523 329.888 225.523Z" stroke="#3F3D56" stroke-miterlimit="10"/>
<path d="M392.048 225.858C398.358 225.858 403.472 219.249 403.472 211.097C403.472 202.944 398.358 196.335 392.048 196.335C385.739 196.335 380.624 202.944 380.624 211.097C380.624 219.249 385.739 225.858 392.048 225.858Z" stroke="#3F3D56" stroke-miterlimit="10"/>
<path d="M362.48 266.787C373.985 266.787 383.312 261.38 383.312 254.71C383.312 248.039 373.985 242.632 362.48 242.632C350.975 242.632 341.648 248.039 341.648 254.71C341.648 261.38 350.975 266.787 362.48 266.787Z" stroke="#3F3D56" stroke-miterlimit="10"/>
<path d="M367.52 247.799C367.526 248.642 367.208 249.456 366.633 250.075C366.361 250.371 366.031 250.608 365.664 250.77C365.296 250.933 364.898 251.018 364.496 251.019H357.776C356.948 250.991 356.165 250.636 355.598 250.032C355.032 249.429 354.727 248.626 354.752 247.799C354.748 247.145 354.94 246.504 355.303 245.959C356.79 245.75 358.29 245.648 359.792 245.652C362.31 245.643 364.821 245.932 367.271 246.51C367.437 246.92 367.522 247.357 367.52 247.799Z" fill="white"/>
<path d="M329.888 210.09C331.743 210.09 333.248 208.588 333.248 206.735C333.248 204.883 331.743 203.381 329.888 203.381C328.032 203.381 326.528 204.883 326.528 206.735C326.528 208.588 328.032 210.09 329.888 210.09Z" fill="white"/>
<path d="M392.384 210.09C394.24 210.09 395.744 208.588 395.744 206.735C395.744 204.883 394.24 203.381 392.384 203.381C390.529 203.381 389.024 204.883 389.024 206.735C389.024 208.588 390.529 210.09 392.384 210.09Z" fill="white"/>
<path opacity="0.3" d="M395.744 241.626C397.6 241.626 399.104 240.124 399.104 238.271C399.104 236.418 397.6 234.916 395.744 234.916C393.889 234.916 392.384 236.418 392.384 238.271C392.384 240.124 393.889 241.626 395.744 241.626Z" fill="#6C63FF"/>
<path opacity="0.3" d="M313.759 241.626C315.615 241.626 317.119 240.124 317.119 238.271C317.119 236.418 315.615 234.916 313.759 234.916C311.904 234.916 310.399 236.418 310.399 238.271C310.399 240.124 311.904 241.626 313.759 241.626Z" fill="#6C63FF"/>
</g>
<defs>
<filter id="filter0_d_621_1165" x="0" y="0" width="730" height="400" filterUnits="userSpaceOnUse" color-interpolation-filters="sRGB">
<feFlood flood-opacity="0" result="BackgroundImageFix"/>
<feColorMatrix in="SourceAlpha" type="matrix" values="0 0 0 0 0 0 0 0 0 0 0 0 0 0 0 0 0 0 127 0" result="hardAlpha"/>
<feOffset dy="4"/>
<feGaussianBlur stdDeviation="2"/>
<feComposite in2="hardAlpha" operator="out"/>
<feColorMatrix type="matrix" values="0 0 0 0 0 0 0 0 0 0 0 0 0 0 0 0 0 0 0.25 0"/>
<feBlend mode="normal" in2="BackgroundImageFix" result="effect1_dropShadow_621_1165"/>
<feBlend mode="normal" in="SourceGraphic" in2="effect1_dropShadow_621_1165" result="shape"/>
</filter>
<clipPath id="clip0_621_1165">
<rect width="722" height="392" fill="white" transform="translate(4)"/>
</clipPath>
</defs>
</svg>
